<svg xmlns="http://www.w3.org/2000/svg" width="500" height="255" viewBox="0 0 500 255" version="1.1">
	<path d="M 32.024 3.543 C 21.002 6.626, 12.116 14.234, 7.171 24.825 C 4.888 29.713, 4.521 31.818, 4.521 40 C 4.521 48.200, 4.886 50.283, 7.190 55.218 C 10.908 63.180, 17.985 70.414, 25.626 74.060 C 45.551 83.570, 69.055 74.029, 76.986 53.212 C 79.830 45.747, 79.700 33.398, 76.703 26.229 C 69.269 8.444, 49.817 -1.433, 32.024 3.543 M 101.500 8.326 C 95.683 10.602, 94.125 12.045, 91.326 17.744 C 88.646 23.202, 88.501 24.198, 88.511 37 C 88.520 49.429, 88.721 50.897, 91.042 55.500 C 93.090 59.563, 94.574 61.015, 98.960 63.250 L 104.359 66 160.598 66 C 191.529 66, 217.548 66.273, 218.418 66.607 C 219.771 67.126, 220 69.577, 220 83.555 L 220 99.895 179.750 100.198 C 142.785 100.475, 139.206 100.652, 135.900 102.364 C 127.995 106.456, 124.438 116.843, 125.243 133.489 C 125.975 148.642, 129.549 155.144, 138.781 158.123 C 141.308 158.939, 154.923 159.458, 181.250 159.743 L 220 160.163 220 176.544 L 220 192.924 161.250 193.212 C 96.392 193.530, 99.345 193.236, 93.705 199.939 C 89.525 204.906, 88.504 209.435, 88.504 223 C 88.504 240.546, 90.858 246.183, 99.902 250.289 C 104.404 252.333, 106.213 252.390, 186.500 253.036 C 235.504 253.431, 270.397 253.325, 273.213 252.773 C 279.841 251.475, 284.097 248.304, 287 242.499 L 289.500 237.500 290.032 175.500 C 290.324 141.400, 290.662 114.021, 290.782 114.658 C 290.902 115.295, 292.951 118.220, 295.336 121.158 C 297.720 124.096, 307.733 137.427, 317.586 150.783 C 341.529 183.237, 340.478 181.915, 344.744 184.980 C 355.808 192.929, 368.276 193.006, 380.227 185.199 C 384.153 182.635, 390.127 175.039, 409.484 148 C 422.825 129.365, 433.151 116.005, 434.218 116.002 C 434.613 116.001, 434.968 141.087, 435.008 171.750 C 435.048 202.413, 435.459 230.456, 435.921 234.069 C 437.349 245.236, 439.989 248.651, 449.718 251.914 C 454.185 253.412, 458.468 254, 464.919 254 C 482.399 254, 489.075 250.762, 492.951 240.402 C 494.968 235.010, 495 233.313, 495 130.588 C 495 39.230, 494.809 25.709, 493.461 21.890 C 490.005 12.093, 482.569 8.651, 465 8.714 C 453.381 8.756, 447.957 9.873, 442.983 13.248 C 439.722 15.461, 423.111 36.476, 389.431 81 C 380.070 93.375, 370.181 106.364, 367.456 109.865 L 362.501 116.229 359.501 112.553 C 357.850 110.531, 340.300 87.642, 320.500 61.689 C 280.669 9.478, 283.199 12.050, 268.500 8.845 C 261.267 7.268, 253.022 7.103, 182.500 7.126 C 125.220 7.145, 103.703 7.464, 101.500 8.326 M 34.355 176.039 C 23.794 178.130, 13.404 186.403, 8.308 196.782 C 5.772 201.946, 5.500 203.517, 5.500 213 C 5.500 222.596, 5.753 224.016, 8.444 229.500 C 15.914 244.726, 32.295 253.134, 48.629 250.124 C 52.285 249.451, 57.079 247.980, 59.281 246.857 C 65.845 243.508, 72.763 236.271, 76.263 229.089 C 79.207 223.049, 79.471 221.708, 79.430 213 C 79.391 204.669, 79.035 202.773, 76.543 197.587 C 68.612 181.087, 51.922 172.563, 34.355 176.039" stroke="none" fill="#000000" fill-rule="evenodd"/>
</svg>